<?xml version="1.0" standalone="no"?>
<!DOCTYPE svg PUBLIC "-//W3C//DTD SVG 20010904//EN"
 "http://www.w3.org/TR/2001/REC-SVG-20010904/DTD/svg10.dtd">
<svg version="1.0" xmlns="http://www.w3.org/2000/svg"
 width="1024.000000pt" height="1024.000000pt" viewBox="0 0 1024.000000 1024.000000"
 preserveAspectRatio="xMidYMid meet">
<metadata>
Created by potrace 1.14, written by Peter Selinger 2001-2017
</metadata>
<g transform="translate(0.000000,1024.000000) scale(0.100000,-0.100000)"
fill="#000000" stroke="none">
<path d="M257 10229 c-93 -22 -182 -96 -226 -189 l-26 -55 0 -4865 0 -4865 22
-47 c26 -58 94 -132 147 -163 23 -13 66 -28 96 -35 41 -8 1280 -10 4885 -8
l4830 3 56 28 c67 32 142 109 172 175 l22 47 3 4840 c2 4831 2 4840 -18 4907
-25 84 -95 164 -178 205 l-57 28 -4845 2 c-2801 0 -4861 -3 -4883 -8z m4523
-2719 l0 -2050 -2050 0 -2050 0 0 2050 0 2050 2050 0 2050 0 0 -2050z m4780 0
l0 -2050 -2050 0 -2050 0 0 2050 0 2050 2050 0 2050 0 0 -2050z m-4780 -4780
l0 -2050 -2050 0 -2050 0 0 2050 0 2050 2050 0 2050 0 0 -2050z m4780 0 l0
-2050 -2050 0 -2050 0 0 2050 0 2050 2050 0 2050 0 0 -2050z"/>
<path d="M2603 9189 c-70 -27 -146 -97 -180 -167 l-28 -57 -3 -557 -3 -557
-557 -3 -557 -3 -56 -28 c-69 -34 -132 -100 -167 -175 -36 -79 -36 -185 1
-265 34 -74 97 -141 166 -174 l56 -28 557 -3 557 -3 3 -557 3 -557 28 -56 c30
-63 93 -127 156 -159 165 -84 375 -11 458 159 l28 56 3 557 3 557 557 3 557 3
56 28 c137 67 217 220 189 360 -22 115 -90 206 -189 254 l-56 28 -557 3 -557
3 -3 557 -3 557 -28 57 c-35 71 -110 140 -183 167 -72 28 -180 27 -251 0z"/>
<path d="M6064 7841 c-113 -28 -211 -121 -245 -233 -26 -85 -21 -154 18 -240
30 -68 102 -139 171 -171 l47 -22 1433 -3 c1594 -3 1491 -7 1587 66 92 70 138
162 137 277 -1 125 -68 233 -184 296 l-63 34 -1435 2 c-789 0 -1449 -2 -1466
-6z"/>
<path d="M1685 4026 c-70 -17 -111 -41 -165 -95 -90 -90 -118 -237 -70 -366
21 -56 47 -84 408 -448 l386 -387 -386 -388 c-362 -363 -387 -391 -408 -447
-43 -114 -25 -247 46 -341 42 -55 131 -109 203 -123 76 -15 166 -1 231 36 26
15 204 184 422 402 l378 376 382 -381 c279 -278 395 -387 429 -402 140 -67
289 -43 394 63 106 106 131 263 63 400 -12 25 -166 187 -401 422 l-382 383
382 382 c249 250 388 398 402 426 90 178 11 391 -175 474 -69 30 -177 30 -259
-2 -56 -21 -86 -49 -448 -408 l-387 -386 -383 381 c-235 234 -397 388 -422
401 -42 21 -131 43 -168 41 -12 0 -44 -6 -72 -13z"/>
<path d="M6100 3750 c-118 -15 -217 -89 -268 -198 -22 -46 -26 -72 -27 -137 0
-71 4 -88 33 -147 38 -77 92 -130 171 -167 l56 -26 1445 0 1445 0 57 27 c141
66 221 212 197 361 -13 80 -41 135 -96 190 -57 57 -113 84 -200 97 -78 11
-2726 12 -2813 0z"/>
<path d="M6064 2381 c-110 -27 -211 -121 -244 -228 -24 -78 -25 -110 -5 -188
28 -105 81 -171 185 -226 l45 -24 1447 -3 c1445 -2 1447 -2 1502 19 129 48
218 176 218 313 0 136 -63 241 -184 307 l-63 34 -1435 2 c-789 0 -1449 -2
-1466 -6z"/>
</g>
</svg>
