<?xml version="1.0" standalone="no"?>
<!DOCTYPE svg PUBLIC "-//W3C//DTD SVG 20010904//EN"
 "http://www.w3.org/TR/2001/REC-SVG-20010904/DTD/svg10.dtd">
<svg version="1.0" xmlns="http://www.w3.org/2000/svg"
 width="1050.000000pt" height="1050.000000pt" viewBox="0 0 1050.000000 1050.000000"
 preserveAspectRatio="xMidYMid meet">
<metadata>
Created by potrace 1.14, written by Peter Selinger 2001-2017
</metadata>
<g transform="translate(0.000000,1050.000000) scale(0.100000,-0.100000)"
fill="#000000" stroke="none">
<path d="M0 5250 l0 -5250 5250 0 5250 0 0 5250 0 5250 -5250 0 -5250 0 0
-5250z m7568 4004 c369 -75 633 -369 672 -745 14 -140 14 -6378 0 -6518 -39
-376 -303 -670 -672 -745 -69 -14 -315 -16 -2318 -16 -2003 0 -2249 2 -2318
16 -199 41 -380 152 -498 306 -100 129 -156 271 -174 439 -13 129 -13 6389 0
6518 18 168 74 310 174 439 116 152 297 264 491 305 61 13 365 15 2318 16
2012 1 2256 -1 2325 -15z"/>
<path d="M3260 8546 c-111 -23 -209 -107 -252 -215 -23 -55 -23 -62 -23 -466
0 -409 0 -410 24 -469 26 -64 85 -135 142 -172 91 -57 -33 -54 2099 -54 2132
0 2008 -3 2099 54 57 37 116 108 142 172 24 59 24 60 24 469 0 405 0 411 -23
467 -45 112 -148 195 -266 217 -89 16 -3891 14 -3966 -3z"/>
<path d="M3155 6372 c-97 -46 -147 -114 -164 -223 -14 -83 -14 -565 0 -649 12
-77 44 -136 100 -184 75 -64 90 -66 504 -66 l372 0 61 31 c69 34 104 71 138
144 24 49 24 54 24 401 l0 351 -31 61 c-30 61 -71 101 -139 138 -32 18 -65 19
-420 22 l-385 2 -60 -28z"/>
<path d="M4849 6386 c-87 -31 -139 -79 -178 -166 -19 -42 -21 -65 -21 -396 l0
-351 31 -61 c32 -65 66 -99 133 -135 40 -22 48 -22 436 -22 388 0 396 0 436
22 67 36 101 70 133 135 l31 61 0 352 0 352 -31 61 c-32 65 -66 99 -133 135
-40 21 -51 22 -421 24 -294 2 -388 0 -416 -11z"/>
<path d="M6509 6386 c-87 -31 -139 -79 -178 -166 -19 -42 -21 -65 -21 -396 l0
-351 31 -61 c34 -69 71 -104 144 -138 50 -24 53 -24 421 -24 413 0 428 2 503
66 56 48 88 107 100 184 14 84 14 566 0 649 -17 109 -67 177 -164 223 l-60 28
-370 0 c-276 -1 -379 -4 -406 -14z"/>
<path d="M3223 4730 c-95 -20 -168 -79 -212 -170 l-26 -55 0 -345 0 -345 26
-56 c32 -68 87 -124 148 -153 44 -20 64 -21 396 -24 246 -3 366 0 405 8 88 20
159 73 203 155 21 39 22 52 25 393 3 305 1 361 -13 403 -22 65 -91 140 -157
170 -52 24 -57 24 -403 26 -192 1 -369 -2 -392 -7z"/>
<path d="M4895 4731 c-70 -11 -125 -42 -173 -96 -70 -80 -72 -94 -72 -484 0
-344 0 -346 24 -396 42 -88 112 -144 204 -164 33 -7 172 -11 372 -11 200 0
339 4 372 11 92 20 162 76 204 164 24 50 24 52 24 396 0 290 -3 353 -16 392
-22 64 -91 139 -156 168 -52 23 -59 24 -393 25 -187 2 -363 -1 -390 -5z"/>
<path d="M6559 4730 c-93 -16 -178 -81 -221 -169 l-23 -46 -3 -1175 c-3 -1344
-10 -1234 87 -1331 89 -89 92 -89 512 -89 334 0 362 1 412 20 59 22 129 84
158 142 38 74 40 138 37 1293 l-3 1120 -26 56 c-33 71 -87 125 -158 158 l-56
26 -335 2 c-184 1 -356 -2 -381 -7z"/>
<path d="M3200 3061 c-79 -25 -149 -82 -184 -150 -31 -59 -38 -155 -34 -463 3
-291 4 -305 26 -353 27 -59 82 -118 137 -148 39 -21 52 -22 424 -25 447 -3
452 -3 536 82 84 83 85 92 85 496 l0 347 -31 61 c-32 65 -66 99 -133 135 -40
21 -50 22 -421 24 -209 1 -391 -2 -405 -6z"/>
<path d="M4847 3056 c-90 -33 -161 -106 -187 -191 -8 -28 -10 -144 -8 -395 l3
-355 27 -47 c36 -59 98 -113 156 -132 67 -23 757 -23 824 0 58 19 120 73 156
132 l27 47 3 355 c2 244 0 368 -8 396 -17 61 -77 132 -140 168 l-55 31 -380 2
c-302 2 -388 0 -418 -11z"/>
</g>
</svg>
