<?xml version="1.0" standalone="no"?>
<!DOCTYPE svg PUBLIC "-//W3C//DTD SVG 20010904//EN"
 "http://www.w3.org/TR/2001/REC-SVG-20010904/DTD/svg10.dtd">
<svg version="1.0" xmlns="http://www.w3.org/2000/svg"
 width="1024.000000pt" height="1024.000000pt" viewBox="0 0 1024.000000 1024.000000"
 preserveAspectRatio="xMidYMid meet">
<metadata>
Created by potrace 1.14, written by Peter Selinger 2001-2017
</metadata>
<g transform="translate(0.000000,1024.000000) scale(0.100000,-0.100000)"
fill="#000000" stroke="none">
<path d="M0 5120 l0 -5120 5120 0 5120 0 0 5120 0 5120 -5120 0 -5120 0 0
-5120z m7730 3933 c104 -36 179 -82 256 -157 84 -84 137 -173 164 -281 20 -77
20 -112 20 -3494 0 -3744 4 -3469 -59 -3603 -66 -140 -213 -271 -359 -320
l-67 -23 -2535 -3 c-2822 -3 -2605 -8 -2752 65 -96 49 -210 162 -260 258 -74
144 -68 -192 -68 3636 l0 3444 28 81 c79 227 275 387 507 414 33 4 1185 7
2560 6 l2500 -1 65 -22z"/>
<path d="M2829 8327 c-73 -37 -131 -105 -148 -173 -7 -28 -11 -261 -11 -692 0
-727 -2 -703 72 -787 22 -25 64 -58 92 -73 l51 -27 2230 0 2230 0 46 21 c66
31 114 78 146 142 l28 57 0 675 0 675 -24 49 c-31 63 -82 113 -145 142 l-51
24 -2227 0 -2226 0 -63 -33z"/>
<path d="M2865 5951 c-102 -26 -206 -106 -253 -196 l-27 -50 -3 -311 c-3 -295
-2 -313 18 -367 40 -108 154 -200 278 -226 72 -15 723 -15 794 0 117 25 219
100 269 197 24 47 24 49 24 382 l0 335 -30 54 c-37 66 -91 114 -175 155 l-65
31 -400 2 c-220 1 -413 -2 -430 -6z"/>
<path d="M4660 5953 c-99 -20 -217 -110 -262 -200 -23 -47 -23 -52 -23 -378 0
-326 0 -331 23 -373 54 -102 155 -176 270 -201 72 -15 722 -15 794 0 121 26
224 105 272 209 l26 55 0 307 c0 287 -1 311 -21 363 -28 75 -99 147 -186 188
l-68 32 -400 1 c-220 1 -411 0 -425 -3z"/>
<path d="M6437 5949 c-97 -23 -203 -105 -250 -193 -21 -39 -22 -54 -25 -364
l-3 -323 26 -57 c48 -105 151 -185 273 -211 72 -15 722 -15 794 0 115 25 216
99 270 201 23 42 23 47 23 373 0 326 0 331 -23 378 -35 69 -103 134 -180 170
l-67 32 -400 2 c-220 1 -417 -3 -438 -8z"/>
<path d="M2827 4401 c-115 -38 -214 -140 -237 -244 -8 -34 -10 -153 -8 -347 3
-278 4 -298 25 -342 30 -66 102 -134 181 -171 l67 -32 420 0 420 0 73 34 c83
39 141 96 178 174 24 52 24 55 24 368 l0 316 -30 60 c-37 73 -101 135 -178
171 l-57 27 -410 2 c-377 2 -415 1 -468 -16z"/>
<path d="M4615 4400 c-106 -34 -209 -135 -235 -228 -6 -21 -10 -163 -10 -334
0 -274 2 -301 20 -352 30 -79 87 -139 178 -183 l76 -38 420 0 421 0 66 31 c83
40 137 88 175 156 l29 53 0 335 0 335 -30 54 c-37 67 -113 135 -185 164 -53
21 -67 22 -460 24 -377 2 -409 1 -465 -17z"/>
<path d="M6393 4396 c-106 -39 -197 -132 -223 -226 -6 -22 -10 -435 -10 -1102
0 -1030 1 -1070 19 -1118 26 -69 77 -128 144 -168 98 -59 123 -62 533 -62 342
0 377 2 435 20 119 37 208 117 244 221 13 35 15 199 15 1110 0 1045 0 1069
-20 1122 -37 98 -128 178 -239 211 -46 13 -117 16 -445 15 -384 0 -392 0 -453
-23z"/>
<path d="M2888 2880 c-113 -20 -220 -95 -274 -192 l-29 -53 0 -330 c0 -328 0
-330 24 -375 38 -71 62 -99 120 -137 105 -70 127 -73 544 -73 391 0 427 4 512
48 67 34 122 89 154 154 l31 61 0 312 c0 343 -2 358 -61 440 -36 50 -111 103
-184 130 -45 17 -87 19 -420 21 -203 1 -391 -1 -417 -6z"/>
<path d="M4678 2880 c-112 -19 -226 -99 -276 -195 l-27 -50 -3 -310 c-2 -214
0 -322 8 -350 31 -106 128 -198 248 -235 59 -18 93 -20 436 -20 410 0 435 3
533 62 57 34 106 87 139 148 17 32 19 65 22 353 4 371 1 383 -80 472 -58 64
-145 111 -233 125 -70 12 -698 11 -767 0z"/>
</g>
</svg>
