<?xml version="1.0" standalone="no"?>
<!DOCTYPE svg PUBLIC "-//W3C//DTD SVG 20010904//EN"
 "http://www.w3.org/TR/2001/REC-SVG-20010904/DTD/svg10.dtd">
<svg version="1.0" xmlns="http://www.w3.org/2000/svg"
 width="1050.000000pt" height="1050.000000pt" viewBox="0 0 1050.000000 1050.000000"
 preserveAspectRatio="xMidYMid meet">
<metadata>
Created by potrace 1.14, written by Peter Selinger 2001-2017
</metadata>
<g transform="translate(0.000000,1050.000000) scale(0.100000,-0.100000)"
fill="#000000" stroke="none">
<path d="M0 5250 l0 -5250 5250 0 5250 0 0 3902 c0 2146 -3 3899 -6 3896 -3
-4 -7 -14 -8 -24 -2 -10 -18 -29 -36 -43 -19 -14 -31 -20 -26 -13 13 21 -4 13
-30 -15 -14 -16 -23 -23 -20 -16 4 6 1 15 -5 19 -8 4 -9 3 -5 -4 6 -10 -8 -18
-17 -9 -9 8 -33 -31 -30 -48 2 -11 1 -14 -3 -7 -9 20 -26 14 -19 -8 7 -24 -7
-26 -29 -5 -20 20 -32 19 -15 -2 13 -15 12 -16 -8 -11 -26 7 -32 1 -35 -36 -2
-17 -6 -22 -12 -16 -6 6 -21 10 -34 10 -15 0 -21 4 -16 12 4 7 3 8 -4 4 -15
-9 -16 -37 -1 -34 6 2 13 -2 16 -9 3 -8 -3 -11 -16 -8 -12 2 -21 -1 -21 -7 0
-7 -5 -7 -14 1 -11 9 -15 8 -20 -4 -3 -9 -10 -14 -15 -10 -5 3 -13 0 -17 -6
-5 -8 1 -10 19 -7 15 3 24 1 21 -4 -4 -6 -18 -8 -33 -5 -14 3 -34 1 -43 -4
-14 -7 -18 -6 -18 5 0 8 -4 18 -10 21 -11 7 -2 -23 12 -41 5 -8 2 -13 -11 -17
-15 -4 -18 -1 -13 12 5 14 4 14 -13 1 -10 -8 -21 -14 -24 -12 -11 5 -41 -28
-41 -45 0 -15 -2 -16 -10 -3 -5 9 -5 19 2 27 7 9 7 13 0 13 -5 0 -12 -7 -16
-15 -4 -10 -14 -13 -34 -9 -16 3 -32 1 -36 -4 -3 -6 -15 -8 -26 -5 -14 4 -22
-1 -29 -20 -5 -14 -14 -28 -20 -32 -7 -3 -8 0 -5 9 4 11 0 14 -17 11 -12 -3
-26 -10 -29 -16 -5 -7 -9 -5 -14 6 -9 24 -25 9 -19 -18 5 -22 5 -22 -11 -2
-15 19 -16 19 -27 2 -10 -18 -11 -18 -32 0 -11 10 -17 12 -13 6 5 -10 -3 -12
-34 -9 l-41 4 26 -24 c14 -13 22 -24 18 -24 -5 0 -14 5 -21 12 -7 7 -12 8 -12
4 0 -5 -6 -3 -14 3 -10 8 -16 9 -21 1 -4 -6 -14 -2 -26 12 -20 23 -20 23 -10
1 16 -33 12 -52 -4 -22 -8 15 -22 29 -30 33 -9 3 -13 2 -10 -4 3 -6 2 -10 -3
-10 -5 0 -9 -7 -9 -15 0 -13 3 -13 18 1 16 15 17 14 12 -4 -5 -20 -18 -23 -39
-10 -6 4 -21 6 -33 3 -12 -2 -19 0 -16 6 4 5 -5 9 -19 9 -14 0 -26 -5 -26 -11
0 -5 5 -7 12 -3 7 5 8 3 3 -6 -6 -10 -10 -10 -19 3 -8 9 -17 12 -26 7 -8 -4
-25 -11 -37 -14 -18 -6 -22 -4 -17 8 3 9 1 16 -5 16 -6 0 -11 -8 -11 -17 0
-11 -3 -14 -8 -7 -9 14 -57 39 -48 26 7 -11 -21 -38 -31 -28 -3 3 -1 6 5 6 7
0 12 7 12 15 0 8 -4 15 -10 15 -5 0 -10 -5 -10 -12 0 -6 -7 -3 -16 8 -15 19
-15 19 -11 -3 4 -19 2 -21 -18 -13 -13 5 -26 6 -29 3 -3 -4 -6 1 -6 10 0 9 -5
17 -11 17 -5 0 -7 -5 -3 -12 4 -6 -3 -4 -17 5 -27 19 -49 22 -49 6 0 -5 4 -8
9 -4 5 3 12 1 15 -4 8 -13 -24 -7 -32 6 -4 5 -15 9 -25 7 -13 -2 -17 2 -12 14
5 13 1 12 -16 -4 -12 -10 -19 -14 -16 -7 10 16 -14 22 -38 10 -13 -7 -20 -6
-23 2 -2 6 -8 11 -13 11 -6 0 -7 -4 -4 -10 3 -5 1 -10 -4 -10 -6 0 -11 6 -11
14 0 24 -28 27 -33 3 -4 -20 -4 -20 -6 -2 -1 11 -12 25 -26 32 -14 6 -23 8
-20 3 3 -4 -2 -10 -10 -14 -8 -3 -17 -1 -20 5 -4 5 -11 6 -17 3 -6 -4 -8 -3
-5 2 3 6 -3 16 -15 23 -11 7 -17 8 -13 2 3 -6 1 -11 -5 -11 -6 0 -8 -5 -4 -12
6 -9 3 -9 -9 1 -9 7 -23 11 -32 8 -8 -4 -17 -1 -21 5 -4 7 -3 8 4 4 8 -5 12 2
11 21 0 18 -3 23 -7 13 -10 -21 -31 -23 -38 -5 -4 8 -12 15 -19 15 -7 0 -16 8
-19 17 -6 14 -9 15 -16 4 -10 -17 -41 -7 -38 11 2 7 -4 12 -14 10 -9 -1 -19 2
-23 7 -3 6 -12 8 -20 4 -21 -7 -19 14 3 26 15 10 14 10 -5 8 -12 -2 -26 -7
-30 -12 -5 -4 -2 -5 6 0 9 5 12 4 7 -3 -4 -6 -13 -9 -21 -6 -17 7 -29 39 -20
54 3 5 2 10 -3 10 -16 0 -23 -30 -11 -52 8 -15 8 -18 0 -14 -8 5 -11 -781 -13
-2801 l-3 -2808 -28 -88 c-33 -107 -71 -183 -129 -262 -153 -206 -357 -320
-616 -345 -146 -14 -4298 -14 -4444 0 -361 34 -636 258 -745 607 l-28 88 0
3325 0 3325 28 88 c33 107 71 183 129 262 153 206 357 320 616 345 68 6 855
10 2172 10 1316 0 2070 4 2080 10 12 7 12 10 1 10 -8 0 -11 6 -7 16 5 12 2 15
-12 12 -12 -4 -18 1 -18 13 0 10 4 15 9 12 5 -3 7 3 5 13 -2 13 2 18 15 16 18
-3 24 22 7 33 -6 4 -7 -1 -3 -12 6 -16 5 -17 -12 -3 -10 8 -19 13 -21 10 -1
-3 -6 -1 -11 4 -5 5 -3 6 5 2 7 -4 15 -1 18 8 3 9 10 14 14 11 5 -3 11 -1 14
4 8 13 -23 43 -36 35 -6 -4 -8 -2 -4 4 3 5 0 13 -6 16 -9 4 -8 5 2 5 37 -3 41
0 30 21 -11 20 3 30 15 10 3 -5 12 -10 18 -10 7 0 4 5 -5 11 -19 11 -25 39 -8
39 5 0 14 10 21 22 10 18 9 20 -7 14 -10 -4 -15 -4 -12 -1 4 4 2 19 -3 33 -8
21 -7 23 4 14 11 -9 13 -8 12 8 -1 11 -4 23 -8 26 -10 11 -8 24 4 24 5 0 7 -4
4 -10 -3 -6 4 -10 17 -10 18 0 20 2 8 10 -8 5 -11 10 -6 10 6 0 2 6 -7 13 -15
11 -15 14 3 37 17 21 21 23 31 10 9 -13 10 -12 5 3 -3 10 -6 23 -6 28 0 5 -5
9 -11 9 -5 0 -7 -5 -3 -12 5 -7 3 -8 -5 -4 -9 6 -8 13 6 29 10 11 12 17 6 13
-7 -4 -13 -2 -13 3 0 6 7 11 16 11 11 0 14 6 9 21 -6 16 -4 20 6 13 10 -6 10
-3 -1 11 -14 17 -13 18 2 12 13 -4 15 -2 11 10 -5 12 -3 14 8 8 8 -5 6 0 -4
12 -12 14 -15 23 -8 28 6 3 11 -1 11 -9 0 -9 5 -16 10 -16 15 0 12 16 -5 33
-18 19 -3 36 33 37 4 0 0 5 -8 10 -12 8 -11 11 8 16 18 5 20 9 11 20 -7 9 -8
14 -1 14 5 0 13 12 17 28 10 40 34 74 48 66 7 -4 3 2 -7 14 -18 21 -13 28 17
23 4 0 7 4 7 10 0 6 -7 9 -15 5 -12 -4 -13 -2 -3 14 7 10 15 17 18 15 10 -6
33 42 26 53 -3 6 -2 14 4 17 6 4 9 1 8 -6 -2 -6 2 -13 7 -15 6 -2 12 5 13 16
4 44 6 50 15 50 5 0 6 7 3 16 -3 8 -2 12 4 9 6 -4 10 5 10 20 0 14 4 24 9 21
11 -7 9 -24 -8 -54 -7 -13 -10 -26 -7 -30 3 -3 6 0 6 7 0 7 5 9 12 5 7 -4 8
-3 4 4 -4 7 -4 17 0 23 4 8 9 7 15 -2 5 -9 7 -2 4 19 -2 17 1 32 6 32 6 0 9 8
7 18 -2 9 6 25 17 34 19 16 -190 17 -3822 18 l-3843 0 0 -5250z m7273 4349
c-8 -8 -13 -7 -18 2 -5 8 -4 10 3 5 7 -4 12 -2 12 5 0 7 3 9 7 6 4 -4 2 -12
-4 -18z m-8 -299 c3 -5 2 -10 -4 -10 -5 0 -13 5 -16 10 -3 6 -2 10 4 10 5 0
13 -4 16 -10z m3089 -1635 c-7 -16 -24 -21 -24 -6 0 8 7 13 27 20 1 1 0 -6 -3
-14z m-79 -65 c4 -6 3 -10 -2 -9 -22 4 -34 -2 -27 -13 5 -8 0 -7 -10 2 -18 14
-18 15 5 21 13 4 25 7 26 8 1 1 5 -4 8 -9z m-1922 -115 c-3 -9 -8 -14 -10 -11
-3 3 -2 9 2 15 9 16 15 13 8 -4z m1512 -83 c-3 -3 -11 0 -18 7 -9 10 -8 11 6
5 10 -3 15 -9 12 -12z m-88 -34 c-3 -8 -6 -5 -6 6 -1 11 2 17 5 13 3 -3 4 -12
1 -19z m-1087 6 c0 -8 -19 -13 -24 -6 -3 5 1 9 9 9 8 0 15 -2 15 -3z m117 -46
c-3 -8 -6 -5 -6 6 -1 11 2 17 5 13 3 -3 4 -12 1 -19z m748 12 c3 -5 1 -10 -4
-10 -6 0 -11 5 -11 10 0 6 2 10 4 10 3 0 8 -4 11 -10z m-650 -10 c3 -6 -1 -7
-9 -4 -18 7 -21 14 -7 14 6 0 13 -4 16 -10z"/>
<path d="M7690 10490 c0 -5 7 -7 15 -4 8 4 15 8 15 10 0 2 -7 4 -15 4 -8 0
-15 -4 -15 -10z"/>
<path d="M7412 9988 c-15 -15 -15 -28 0 -28 6 0 8 3 5 7 -4 3 -2 12 4 20 14
16 7 17 -9 1z"/>
<path d="M7385 9841 c-3 -5 -2 -12 3 -15 5 -3 9 1 9 9 0 17 -3 19 -12 6z"/>
<path d="M7320 9740 c0 -5 5 -10 11 -10 5 0 7 5 4 10 -3 6 -8 10 -11 10 -2 0
-4 -4 -4 -10z"/>
<path d="M7260 9486 c0 -2 9 -6 20 -9 11 -3 18 -1 14 4 -5 9 -34 13 -34 5z"/>
<path d="M3209 8527 c-73 -31 -121 -68 -159 -125 -59 -89 -61 -108 -58 -558
l3 -409 28 -60 c35 -76 110 -146 185 -177 l57 -23 1980 2 1980 2 57 21 c101
37 181 121 209 217 21 71 20 845 0 888 -8 17 -13 34 -13 38 1 4 -5 10 -13 13
-8 4 -15 14 -15 23 0 33 -69 99 -138 133 l-67 33 -1990 2 -1990 3 -56 -23z"/>
<path d="M10460 7783 c10 -22 5 -28 -22 -24 -5 0 -8 -3 -8 -9 0 -14 13 -13 33
3 16 11 16 14 2 32 -16 19 -16 19 -5 -2z"/>
<path d="M10185 7590 c-3 -5 -1 -10 4 -10 6 0 11 5 11 10 0 6 -2 10 -4 10 -3
0 -8 -4 -11 -10z"/>
<path d="M8285 7571 c-3 -5 -1 -12 5 -16 5 -3 10 1 10 9 0 18 -6 21 -15 7z"/>
<path d="M8456 7497 c3 -10 9 -15 12 -12 3 3 0 11 -7 18 -10 9 -11 8 -5 -6z"/>
<path d="M8496 7475 c-3 -8 -1 -15 4 -15 6 0 10 7 10 15 0 8 -2 15 -4 15 -2 0
-6 -7 -10 -15z"/>
<path d="M8546 7441 c-3 -5 1 -11 9 -14 9 -4 12 -1 8 9 -6 16 -10 17 -17 5z"/>
<path d="M9020 7345 c0 -8 4 -15 10 -15 5 0 7 7 4 15 -4 8 -8 15 -10 15 -2 0
-4 -7 -4 -15z"/>
<path d="M9135 7340 c3 -5 8 -10 11 -10 2 0 4 5 4 10 0 6 -5 10 -11 10 -5 0
-7 -4 -4 -10z"/>
<path d="M3207 6389 c-88 -21 -165 -89 -197 -176 -20 -54 -21 -72 -18 -407 3
-342 4 -352 26 -393 30 -58 86 -111 141 -137 44 -20 60 -21 431 -21 371 0 387
1 430 21 57 27 117 87 144 144 20 43 21 59 21 405 0 354 0 361 -23 406 -29 59
-82 112 -141 141 -45 23 -54 23 -411 25 -201 1 -382 -3 -403 -8z"/>
<path d="M4858 6386 c-83 -22 -156 -89 -188 -174 -19 -49 -20 -76 -20 -387 0
-312 1 -338 20 -389 25 -66 85 -130 148 -159 46 -21 59 -22 432 -22 373 0 386
1 432 22 63 29 123 93 148 159 19 51 20 76 20 387 -1 361 -5 396 -60 464 -37
46 -108 89 -168 102 -76 16 -702 14 -764 -3z"/>
<path d="M6537 6389 c-88 -21 -155 -75 -199 -159 -23 -45 -23 -47 -23 -405 0
-346 1 -362 21 -405 12 -25 39 -62 60 -84 22 -21 59 -48 84 -60 43 -20 59 -21
430 -21 373 0 386 1 432 22 63 29 123 93 148 159 19 51 20 77 20 383 0 263 -3
337 -15 378 -20 68 -88 143 -157 174 -52 24 -57 24 -408 26 -195 1 -372 -2
-393 -8z"/>
<path d="M3173 4714 c-56 -20 -123 -81 -153 -140 l-25 -49 -3 -349 c-2 -299 0
-356 13 -397 22 -65 91 -140 157 -170 51 -23 62 -24 375 -27 328 -4 436 3 494
33 50 26 99 76 127 129 l27 51 0 361 0 360 -30 59 c-34 66 -101 125 -165 144
-25 7 -159 11 -406 10 -299 0 -377 -3 -411 -15z"/>
<path d="M4845 4717 c-83 -33 -127 -72 -166 -147 -24 -45 -24 -46 -24 -410 0
-363 0 -365 23 -410 33 -63 86 -115 146 -142 50 -23 56 -23 426 -23 370 0 376
0 426 23 60 27 113 79 146 142 23 45 23 47 23 410 l0 365 -27 50 c-31 60 -67
95 -128 127 -45 23 -48 23 -430 25 -279 1 -393 -1 -415 -10z"/>
<path d="M6515 4717 c-90 -36 -151 -94 -181 -173 -18 -47 -19 -95 -19 -1224
l0 -1175 21 -46 c28 -60 93 -125 153 -153 44 -20 58 -21 421 -21 l375 0 57 28
c69 34 121 91 148 165 20 53 20 70 18 1225 l-3 1172 -24 47 c-29 57 -81 109
-141 140 -45 23 -48 23 -420 25 -271 1 -383 -1 -405 -10z"/>
<path d="M3199 3056 c-54 -14 -120 -60 -155 -107 -52 -71 -55 -98 -52 -476 l3
-348 29 -53 c35 -62 87 -107 156 -133 46 -17 81 -19 410 -19 409 0 430 3 510
81 83 81 85 88 88 472 3 383 0 411 -64 486 -48 55 -97 86 -162 100 -75 16
-702 14 -763 -3z"/>
<path d="M4858 3056 c-83 -23 -156 -90 -188 -174 -19 -49 -20 -76 -20 -387 0
-313 1 -338 21 -390 27 -72 92 -137 164 -164 53 -20 76 -21 415 -21 339 0 362
1 415 21 72 27 137 92 164 164 20 52 21 77 21 390 0 310 -1 338 -20 388 -24
63 -84 127 -149 159 -45 23 -54 23 -411 25 -273 2 -377 -1 -412 -11z"/>
</g>
</svg>
